<svg xmlns:xlink="http://www.w3.org/1999/xlink" xmlns="http://www.w3.org/2000/svg" viewBox="0 0 135 53" class="Footer_logo__xLcg0" width="135"  height="53" ><g fill="none" fill-rule="evenodd"><g fill="#212337" fill-rule="nonzero"><path d="M89.89 45.055v2.155H88.5v-7.013h1.388v.336a2.638 2.638 0 0 1 1.388-.407c1.576 0 2.734 1.22 2.734 2.673 0 1.444-1.148 2.673-2.734 2.673a2.506 2.506 0 0 1-1.388-.417Zm0-2.896v1.24c.24.477.72.792 1.283.792.814 0 1.45-.61 1.45-1.392 0-.793-.626-1.392-1.44-1.392-.563 0-1.054.294-1.294.752Zm4.872-3.376c0-.447.334-.782.783-.782s.814.335.814.782c0 .427-.365.783-.814.783a.776.776 0 0 1-.783-.783Zm.084 1.414h1.409v5.194h-1.41v-5.194Zm2.243 2.582c0-1.433 1.148-2.643 2.735-2.643a3.03 3.03 0 0 1 1.408.346v-.285h1.378v4.899c0 1.352-1.2 2.083-2.703 2.083-.98 0-1.92-.284-2.536-.752l.574-.965c.511.335 1.21.549 1.962.549.97 0 1.273-.376 1.315-.986a2.696 2.696 0 0 1-1.398.406c-1.597 0-2.735-1.158-2.735-2.652Zm4.143.58v-1.16a1.456 1.456 0 0 0-1.304-.813c-.814 0-1.45.63-1.45 1.393 0 .803.625 1.362 1.44 1.362.594 0 1.064-.295 1.314-.783Zm2.212-.58c0-1.433 1.148-2.643 2.734-2.643a3.03 3.03 0 0 1 1.409.346v-.285h1.378v4.899c0 1.352-1.2 2.083-2.703 2.083-.981 0-1.92-.284-2.536-.752l.574-.965c.51.335 1.21.549 1.962.549.97 0 1.273-.376 1.315-.986a2.696 2.696 0 0 1-1.399.406c-1.596 0-2.734-1.158-2.734-2.652Zm4.143.58v-1.16a1.456 1.456 0 0 0-1.304-.813c-.814 0-1.45.63-1.45 1.393 0 .803.625 1.362 1.44 1.362.594 0 1.064-.295 1.314-.783ZM110.989 40.197l1.398 3.466 1.44-3.466h1.462l-3.069 7.013h-1.304l.772-1.87-2.244-5.143h1.545z" fill="#212337"></path><path d="M115.027 40.197h1.492l1.357 3.507 1.347-3.507h1.461l-2.139 5.194h-1.399zM120.787 42.758c0-1.463 1.075-2.673 2.756-2.673 1.555 0 2.734 1.139 2.765 2.633.01.122.01.254 0 .386h-4.206c.042.732.762 1.21 1.535 1.21.636 0 1.012-.173 1.45-.53l.762.783c-.616.63-1.231.925-2.212.925-1.806 0-2.85-1.31-2.85-2.734Zm1.388-.62h2.693c-.136-.487-.616-.914-1.346-.914-.846 0-1.2.416-1.347.914Zm4.425 2.694.678-1.078a3.87 3.87 0 0 0 2.067.62c.7 0 1.054-.172 1.054-.467 0-.193-.167-.336-.522-.407l-1.461-.304c-1.075-.224-1.565-.722-1.565-1.535 0-.864.751-1.586 2.306-1.586.94 0 1.774.265 2.348.61l-.636 1.037c-.47-.244-1.096-.508-1.753-.508-.595 0-.94.142-.94.406 0 .173.125.285.47.346l1.232.223c1.335.254 1.847.834 1.847 1.616 0 1.128-1.159 1.718-2.422 1.718-1.012 0-1.827-.203-2.703-.691ZM132.005 40.197h.793v-1.433l1.388-.874v2.307h.815v1.179h-.815v4.015h-1.388v-4.015h-.793zM85.028 41.118a5.015 5.015 0 0 0-.166-.98c-.397-1.428-1.232-2.548-2.508-3.349a5.777 5.777 0 0 0-2.68-.873 6.27 6.27 0 0 0-1.205.03 6.113 6.113 0 0 0-1.233.293c-1.76.622-3.113 2.039-3.618 3.795-.11.379-.174.765-.2 1.158-.013.203-.013.406-.013.609v4.927c0 .265.22.482.496.482h1.955c.255 0 .465-.19.493-.432v-.002a.55.55 0 0 0 .02-.143v-.113c0-.01-.003-.017 0-.027v-.007c.017.003.027.012.037.017.74.396 1.531.627 2.374.69a6.078 6.078 0 0 0 1.895-.159c1.266-.326 2.312-.984 3.127-1.988a5.485 5.485 0 0 0 1.216-2.946c.034-.328.037-.654.01-.982Zm-4.767 3.149a.074.074 0 0 1-.074.06h-1.923a.076.076 0 0 1-.074-.06l-.003-.012v-.07c0-.09.01-.172.03-.256.012-.029.02-.063.032-.094.01-.031.025-.06.037-.092.018-.029.033-.058.05-.084l.027-.041c.017-.027.04-.054.06-.078l.066-.074c.114-.109.255-.196.412-.244a.66.66 0 0 1-.357-.584c0-.367.305-.664.681-.666.189 0 .36.077.483.195.124.12.201.287.201.47a.665.665 0 0 1-.357.585 1.015 1.015 0 0 1 .709 1.045Zm3.325-4.093h-8.722a.101.101 0 0 1-.097-.132c.647-1.788 2.399-3.072 4.458-3.072s3.81 1.284 4.457 3.072a.1.1 0 0 1-.096.132Z" fill="#212337"></path></g><g fill="#212337" fill-rule="nonzero"><path d="M10.798 6.242C3.572 6.242 0 9.61 0 15.196V39.67h6.2v-9.402c1.273 1.15 3.408 1.724 6.405 1.724 6.118 0 9.037-3.203 9.037-8.788v-8.009c-.004-5.585-3.577-8.953-10.844-8.953Zm4.64 16.186c0 2.833-1.56 4.271-4.64 4.271-3.08 0-4.598-1.442-4.598-4.271v-6.452c0-2.834 1.519-4.272 4.598-4.272 3.08 0 4.64 1.438 4.64 4.272v6.452ZM60.166 6.242c-6.898 0-10.47 3.614-10.47 8.869v8.05c0 5.256 3.572 8.829 10.43 8.829 6.735 0 10.305-3.573 10.305-8.83v-1.393h-5.953v.74c0 2.668-1.438 4.023-4.348 4.023s-4.348-1.355-4.348-4.107v-6.611c0-2.752 1.478-4.108 4.393-4.108 2.874 0 4.312 1.356 4.312 4.025v.821h5.953v-1.437c-.009-5.257-3.581-8.871-10.274-8.871ZM94.922 6.653h-6.939l-5.256 9.2h-3.123V0h-6.2v31.623h6.2V21.11h2.919l5.624 10.513h7.144l-7.349-12.895zM106.971 6.242c-7.185 0-10.922 3.411-10.922 8.869v8.093c0 5.463 3.654 8.788 10.922 8.788 7.185 0 10.88-3.08 10.88-7.474v-.821h-5.997v.205c0 2.013-1.602 3.04-4.845 3.04-3.325 0-4.968-1.397-4.968-4.148v-1.972h15.807v-5.708c.003-5.545-3.693-8.872-10.877-8.872Zm4.883 10.557h-9.813V15.52c0-2.833 1.642-4.23 4.927-4.23 3.24 0 4.886 1.396 4.886 4.19v1.32Zm19.596 9.444c-3.24 0-4.348-1.023-4.348-4.805v-9.816h6.775v-4.97h-6.775V1.519h-6.2v20.33c0 7.022 2.546 9.815 9.115 9.815h4.024v-5.421h-2.59ZM41.908 6.666a53.762 53.762 0 0 0-6.468-.412c-.927-.031-2.148.063-3.366.148-1.065.075-2.131.15-3.19.356-1.888.367-3.686 2.549-3.909 4.741a75.43 75.43 0 0 0-.329 10.143c.085 2.461.942 4.483 2.558 6.074a12.505 12.505 0 0 0 2.131 1.67c1.431.9 2.942 1.584 4.475 2.2.95.392 2.002.462 2.995.2 1.535-.405 2.957-1.173 4.379-1.929a12.563 12.563 0 0 0 2.722-1.944c1.431-1.347 2.407-3.022 2.665-5.171.1-.831.125-1.676.145-2.516.064-2.814-.08-5.622-.341-8.419-.253-2.724-2.106-4.85-4.467-5.141Zm-12.874 3.3a1.33 1.33 0 0 1 .263-.256c.077-.048.157-.09.24-.126a.608.608 0 0 1 .122-.065c.085-.035.188-.064.289-.093.054-.009.107-.03.166-.038.1-.01.226-.029.341-.04.066 0 .126-.013.197-.016.072-.003.144-.007.215 0 1.634.04 3.236.084 4.807.134 1.57-.05 3.172-.095 4.806-.134h.215c.066 0 .131.013.197.015.114.012.239.03.341.041.06.009.113.03.167.038.1.029.2.058.289.093.043.017.084.039.122.065.083.036.163.078.239.126.1.072.188.158.263.255.341.436.379 1.073.151 1.823-.036.13-.066.248-.103.384-.051.222-.09.446-.116.671a4.738 4.738 0 0 0-.062.656 8.67 8.67 0 0 0 0 .917c-.23.06-.484.114-.757.17a8.826 8.826 0 0 1-.04-1.253c.009-.22.03-.44.061-.657a5.35 5.35 0 0 1 .123-.67c.015-.054.023-.107.033-.16.138-.52.077-.992-.194-1.316-.275-.367-.752-.54-1.388-.523-1.449.042-2.898.092-4.342.15a411.226 411.226 0 0 0-4.342-.15c-.636-.017-1.112.156-1.388.523-.27.324-.332.795-.193 1.316.01.053.018.106.032.16.055.22.096.444.123.67.032.218.053.437.061.657.017.418.003.837-.04 1.254-.273-.06-.527-.112-.757-.17.015-.308.011-.62 0-.918a4.742 4.742 0 0 0-.061-.656 6.26 6.26 0 0 0-.117-.67c-.037-.137-.066-.257-.103-.385-.242-.75-.207-1.384.137-1.823h.003Zm1.612 3.33c.827-.006 1.472-.157 1.936-.461.314-.179.553-.465.673-.806.092-.237.121-.495.085-.747a2.755 2.755 0 0 0-.049-.267c-.034-.094-.069-.194-.109-.288.795.029 1.644.061 2.492.095.848-.034 1.697-.066 2.492-.095-.04.093-.075.194-.109.288a2.585 2.585 0 0 0-.05.267c-.035.252-.006.51.086.747.12.341.36.627.673.806.464.304 1.109.455 1.936.46-.018.475-.001.95.05 1.422-1.675.3-3.376.422-5.076.368-1.7.054-3.401-.069-5.076-.368.048-.472.063-.947.043-1.422h.003Zm-.178-1.436a.35.35 0 0 0-.01-.077c-.08-.32-.047-.603.117-.803.18-.218.487-.335.895-.313l.938.027c.131.225.207.477.222.737a.845.845 0 0 1-.17.548.902.902 0 0 1-.246.251c-.341.256-.886.379-1.604.384 0-.024-.009-.04-.01-.065a5.09 5.09 0 0 0-.136-.689h.004Zm10.278.69c0 .023-.008.04-.009.064-.719-.005-1.263-.127-1.605-.384a.891.891 0 0 1-.244-.251.844.844 0 0 1-.17-.548c.014-.26.09-.513.221-.737l.938-.027c.408-.022.713.095.895.313.164.2.198.484.116.803a.337.337 0 0 0-.01.077 5.132 5.132 0 0 0-.136.69h.004Zm3.533 4c-.02.456-.318.851-.75.998a27.84 27.84 0 0 1-15.715 0 1.108 1.108 0 0 1-.75-.997v-1.14c0-.427.335-.656.75-.535a27.854 27.854 0 0 0 15.716 0c.415-.121.75.111.75.534v1.14Z" fill="#212337"></path></g><path d="M60.254 39.38H86.53V53H60.254z" fill="none"></path><path fill="#212337" fill-rule="nonzero" d="M60.717 39.624h.686v2.09c.154-.201.338-.355.553-.46.214-.107.447-.16.697-.16.523 0 .947.18 1.273.54.325.359.488.889.488 1.59 0 .664-.161 1.215-.483 1.654-.321.44-.767.659-1.336.659-.32 0-.588-.077-.808-.231a1.95 1.95 0 0 1-.42-.44v.538h-.65v-5.78Zm1.835 5.29c.381 0 .667-.152.856-.455.19-.304.284-.703.284-1.2 0-.442-.094-.808-.284-1.098-.19-.29-.468-.435-.837-.435-.321 0-.603.119-.845.357-.241.237-.362.63-.362 1.176 0 .395.05.715.149.96.185.463.532.695 1.039.695Zm5.307-3.71h.78c-.099.27-.32.884-.662 1.843-.256.722-.47 1.31-.643 1.765-.408 1.071-.695 1.725-.862 1.96-.168.235-.455.353-.863.353-.1 0-.176-.004-.23-.012a1.811 1.811 0 0 1-.197-.043v-.643c.123.034.212.055.266.063.055.008.104.012.146.012.13 0 .226-.022.288-.065a.597.597 0 0 0 .154-.159c.014-.02.06-.128.142-.321.08-.194.14-.338.176-.432l-1.552-4.32h.8l1.124 3.418 1.133-3.419Z"></path></g></svg>